<?xml version="1.0" encoding="utf-8"?>
<svg version="1.1" id="Layer_1" xmlns="http://www.w3.org/2000/svg" xmlns:xlink="http://www.w3.org/1999/xlink" x="0px" y="0px"
	 width="20px" height="20px" viewBox="0 0 20 20" enable-background="new 0 0 20 20" xml:space="preserve">
<path d="M20,11.405V8.595l-2.45-0.811c-0.158-0.537-0.381-1.054-0.648-1.543l1.142-2.292l-1.99-1.988L13.76,3.107
	c-0.49-0.267-1.007-0.5-1.544-0.657L11.405,0h-2.81L7.784,2.45C7.248,2.608,6.731,2.831,6.241,3.098L3.949,1.957l-1.988,1.99
	L3.108,6.24C2.84,6.729,2.608,7.246,2.45,7.783L0,8.595v2.811l2.45,0.811c0.158,0.537,0.381,1.054,0.648,1.543l-1.142,2.292
	l1.99,1.988l2.293-1.146c0.49,0.267,1.007,0.5,1.544,0.657L8.595,20h2.81l0.811-2.45c0.536-0.158,1.053-0.381,1.543-0.648
	l2.292,1.141l1.988-1.99l-1.147-2.293c0.267-0.489,0.5-1.006,0.657-1.544L20,11.405z M10,14.7c-2.591,0-4.7-2.109-4.7-4.7
	c0-2.591,2.108-4.7,4.7-4.7c2.591,0,4.7,2.109,4.7,4.7C14.7,12.591,12.591,14.7,10,14.7z"/>
</svg>
