<?xml version="1.0" encoding="UTF-8" standalone="no"?>
<svg width="15px" height="13px" viewBox="0 0 15 13" version="1.1" xmlns="http://www.w3.org/2000/svg" xmlns:xlink="http://www.w3.org/1999/xlink">
    <g id="Symbols" stroke="none" stroke-width="1" fill="none" fill-rule="evenodd">
        <g id="bubble/eye/bb">
            <path style="fill:currentColor;fill-opacity:1;fill-rule:nonzero;stroke:none"
              d="M14.956,6.6708 C15.015,6.5638 15.015,6.4368 14.956,6.3288 C14.861,6.1518 12.569,1.9998 7.5,1.9998 C6.255,1.9998 5.179,2.2528 4.26,2.6328 L1.221,-0.0002 L-5.04041253e-14,-0.0002 L-5.04041253e-14,1.0588 L2.758,3.4488 C0.968,4.6658 0.101,6.2218 0.044,6.3288 C-0.015,6.4368 -0.015,6.5638 0.044,6.6708 C0.139,6.8478 2.431,10.9998 7.5,10.9998 C8.746,10.9998 9.821,10.7478 10.74,10.3668 L13.779,12.9998 L15,12.9998 L15,11.9408 L12.242,9.5508 C14.033,8.3338 14.899,6.7778 14.956,6.6708 Z M7.5,3.7998 C10.39,3.7998 12.138,5.5078 12.909,6.4998 C12.5,7.0258 11.805,7.7498 10.819,8.3178 L9.401,7.0888 C9.46,6.9018 9.5,6.7058 9.5,6.4998 C9.5,5.3968 8.603,4.4998 7.5,4.4998 C7.193,4.4998 6.905,4.5748 6.644,4.6998 L5.852,4.0138 C6.357,3.8868 6.898,3.7998 7.5,3.7998 Z M7.5,9.1998 C4.609,9.1998 2.86,7.4898 2.09,6.4998 C2.5,5.9738 3.195,5.2498 4.181,4.6818 L5.599,5.9108 C5.54,6.0978 5.5,6.2938 5.5,6.4998 C5.5,7.6028 6.397,8.4998 7.5,8.4998 C7.807,8.4998 8.095,8.4248 8.356,8.2998 L9.147,8.9868 C8.643,9.1128 8.102,9.1998 7.5,9.1998 Z" id="Fill-1"></path>
        </g>
    </g>
</svg>
