<?xml version="1.0" encoding="UTF-8" standalone="no"?>
<svg
   xmlns:dc="http://purl.org/dc/elements/1.1/"
   xmlns:cc="http://creativecommons.org/ns#"
   xmlns:rdf="http://www.w3.org/1999/02/22-rdf-syntax-ns#"
   xmlns:svg="http://www.w3.org/2000/svg"
   xmlns="http://www.w3.org/2000/svg"
   viewBox="0 0 45.333332 34.666668"
   height="34.666668"
   width="45.333332"
   xml:space="preserve"
   id="svg2"
   version="1.1"><metadata
     id="metadata8"><rdf:RDF><cc:Work
         rdf:about=""><dc:format>image/svg+xml</dc:format><dc:type
           rdf:resource="http://purl.org/dc/dcmitype/StillImage" /></cc:Work></rdf:RDF></metadata><defs
     id="defs6"><clipPath
       id="clipPath18"
       clipPathUnits="userSpaceOnUse"><path
         id="path16"
         d="M 0,26 H 34 V 0 H 0 Z" /></clipPath></defs><g
     transform="matrix(1.3333333,0,0,-1.3333333,0,34.666667)"
     id="g10"><g
       id="g12"><g
         clip-path="url(#clipPath18)"
         id="g14"><g
           transform="translate(34,14)"
           id="g20"><path
             id="path22"
             style="fill:currentColor;fill-opacity:1;fill-rule:nonzero;stroke:none"
             d="m 0,0 h -2.5 c 0,-2.907 -0.8,-4.956 -1.884,-6.327 L -8,0 -12.085,-7.148 c -1.576,1.426 -2.817,3.91 -3.702,7.451 -0.01,0.039 -0.021,0.074 -0.031,0.113 C -13.584,1.289 -12,3.457 -12,6 c 0,3.314 -2.686,6 -6,6 -1.622,0 -3.091,-0.646 -4.171,-1.692 C -23.181,10.768 -24.289,11 -25.5,11 -28.917,11 -34,8.081 -34,0 h 2.5 c 0,6.247 3.588,8.515 6,8.515 0.412,0 1.104,-0.007 1.921,-0.318 C -23.848,7.516 -24,6.776 -24,6 c 0,-3.212 2.526,-5.827 5.699,-5.985 0.028,-0.11 0.06,-0.205 0.088,-0.318 1.198,-4.79 2.991,-7.51 4.89,-9.012 L -16,-14 H 0 l -3.09,5.407 C -1.341,-6.856 0,-4.091 0,0" /></g><g
           transform="translate(4.5,10)"
           id="g24"><path
             id="path26"
             style="fill:currentColor;fill-opacity:1;fill-rule:nonzero;stroke:none"
             d="M 0,0 C -2.485,0 -4.5,-2.015 -4.5,-4.5 -4.5,-6.985 -2.485,-9 0,-9 2.485,-9 4.5,-6.985 4.5,-4.5 4.5,-2.015 2.485,0 0,0" /></g></g></g></g></svg>