<?xml version="1.0" encoding="UTF-8" standalone="no"?>
<svg
   xmlns:dc="http://purl.org/dc/elements/1.1/"
   xmlns:cc="http://creativecommons.org/ns#"
   xmlns:rdf="http://www.w3.org/1999/02/22-rdf-syntax-ns#"
   xmlns:svg="http://www.w3.org/2000/svg"
   xmlns="http://www.w3.org/2000/svg"
   viewBox="0 0 45.333332 29.333332"
   height="29.333332"
   width="45.333332"
   xml:space="preserve"
   id="svg2"
   version="1.1"><metadata
     id="metadata8"><rdf:RDF><cc:Work
         rdf:about=""><dc:format>image/svg+xml</dc:format><dc:type
           rdf:resource="http://purl.org/dc/dcmitype/StillImage" /></cc:Work></rdf:RDF></metadata><defs
     id="defs6"><clipPath
       id="clipPath18"
       clipPathUnits="userSpaceOnUse"><path
         id="path16"
         d="M 0,22 H 34 V 0 H 0 Z" /></clipPath></defs><g
     transform="matrix(1.3333333,0,0,-1.3333333,0,29.333333)"
     id="g10"><g
       id="g12"><g
         clip-path="url(#clipPath18)"
         id="g14"><g
           transform="translate(25.0005)"
           id="g20"><path
             id="path22"
             style="fill:currentColor;fill-opacity:1;fill-rule:nonzero;stroke:none"
             d="m 0,0 c -4.799,0 -7.881,3.306 -9.698,10.576 -1.985,7.939 -4.688,7.939 -6.302,7.939 -2.538,0 -5.5,-1.969 -5.5,-7.515 H -25 c 0,7.609 4.52,11 9,11 4.941,0 7.841,-3.152 9.697,-10.576 C -4.301,3.419 -1.396,3.419 0,3.419 2.042,3.419 5.5,5.016 5.5,11 H 9 C 9,6.546 6.603,0 0,0" /></g></g></g></g></svg>
