<?xml version="1.0" encoding="utf-8"?>
<svg version="1.1" id="Layer_1" xmlns="http://www.w3.org/2000/svg" xmlns:xlink="http://www.w3.org/1999/xlink" x="0px" y="0px"
	 width="32px" height="28px" viewBox="0 0 32 28" enable-background="new 0 0 32 28" xml:space="preserve">
<path d="M17,20H7l5-8L17,20z M32,25l-4-3v2H4V4h2L3,0L0,4h2v22h26v2L32,25z M18.5,10c1.933,0,3.5-1.567,3.5-3.5S20.433,3,18.5,3
	S15,4.567,15,6.5S16.567,10,18.5,10z M26,17c1.657,0,3-1.343,3-3s-1.343-3-3-3s-3,1.343-3,3S24.343,17,26,17z"/>
</svg>
